<svg width="21" height="22" viewBox="0 0 21 22" fill="none" xmlns="http://www.w3.org/2000/svg">
<path d="M19.845 14.9433C18.41 14.9433 17.0217 14.71 15.7267 14.29C15.5238 14.2212 15.3056 14.211 15.0972 14.2605C14.8888 14.3101 14.6986 14.4173 14.5483 14.57L12.7167 16.8683C9.415 15.2933 6.32333 12.3183 4.67833 8.9L6.95333 6.96333C7.26833 6.63667 7.36167 6.18167 7.23333 5.77333C6.80167 4.47833 6.58 3.09 6.58 1.655C6.58 1.025 6.055 0.5 5.425 0.5H1.38833C0.758333 0.5 0 0.78 0 1.655C0 12.4933 9.01833 21.5 19.845 21.5C20.6733 21.5 21 20.765 21 20.1233V16.0983C21 15.4683 20.475 14.9433 19.845 14.9433Z" fill="black"/>
</svg>
