<svg width="21" height="19" viewBox="0 0 21 19" fill="none" xmlns="http://www.w3.org/2000/svg">
<path d="M9.42829 18.6496C4.29979 18.6496 0.142578 14.4923 0.142578 9.36384C0.142578 4.23534 4.29979 0.0781276 9.42829 0.0781276C10.87 0.0770445 12.2922 0.412202 13.5817 1.05697C14.8713 1.70174 15.9927 2.63836 16.8569 3.79241H14.3404C13.2681 2.8469 11.9458 2.23089 10.5321 2.01828C9.11838 1.80568 7.67335 2.00552 6.3704 2.59383C5.06745 3.18213 3.96193 4.13391 3.1865 5.33494C2.41107 6.53598 1.99867 7.93526 1.99879 9.36487C1.99891 10.7945 2.41154 12.1937 3.18717 13.3946C3.9628 14.5955 5.06848 15.5471 6.37153 16.1352C7.67458 16.7233 9.11965 16.9229 10.5333 16.71C11.947 16.4972 13.2692 15.881 14.3414 14.9353H16.8578C15.9935 16.0894 14.872 17.0261 13.5822 17.6709C12.2925 18.3157 10.8702 18.6508 9.42829 18.6496ZM15.9283 13.0781V10.2924H8.49972V8.43527H15.9283V5.64956L20.5711 9.36384L15.9283 13.0781Z" fill="white"/>
</svg>
