<svg width="41" height="41" viewBox="0 0 41 41" fill="none" xmlns="http://www.w3.org/2000/svg">
<path fill-rule="evenodd" clip-rule="evenodd" d="M29.4305 12.0602C28.298 10.9271 26.9525 10.0292 25.4716 9.41823C23.9906 8.80723 22.4034 8.49518 20.8014 8.50006C14.0781 8.50006 8.605 13.9458 8.60227 20.6407C8.59929 22.7725 9.16122 24.867 10.2309 26.711L8.5 33.0001L14.9668 31.3119C16.7568 32.2816 18.7606 32.7891 20.7965 32.7884H20.8014C27.5241 32.7884 32.9967 27.3421 33 20.6478C33.0041 19.0512 32.6906 17.4698 32.0778 15.9955C31.465 14.5212 30.5651 13.1835 29.4305 12.0602ZM20.8014 30.7393H20.797C18.9822 30.7398 17.2003 30.2541 15.6367 29.3327L15.2665 29.114L11.4291 30.1158L12.4534 26.3922L12.2122 26.0094C11.1974 24.4027 10.6597 22.541 10.6618 20.6407C10.6618 15.0773 15.2123 10.5508 20.8052 10.5508C23.4882 10.546 26.0632 11.6071 27.9639 13.5007C29.8646 15.3944 30.9353 17.9654 30.9405 20.6483C30.9383 26.2122 26.3899 30.7393 20.8014 30.7393ZM26.3626 23.182C26.058 23.03 24.5579 22.2961 24.2801 22.1949C24.0023 22.0937 23.7972 22.0429 23.5943 22.3469C23.3914 22.651 22.8068 23.3313 22.6291 23.5364C22.4513 23.7415 22.2736 23.7639 21.969 23.6119C21.6644 23.4598 20.6816 23.1399 19.5173 22.1063C18.6112 21.3019 17.9998 20.3087 17.822 20.0052C17.6443 19.7017 17.8029 19.5371 17.9555 19.3861C18.0927 19.25 18.2601 19.0318 18.4127 18.8546C18.5652 18.6774 18.6161 18.5505 18.7173 18.3482C18.8184 18.1458 18.7681 17.9686 18.6921 17.8172C18.6161 17.6657 18.0063 16.1722 17.7526 15.5646C17.5048 14.9729 17.2538 15.0533 17.0668 15.044C16.8891 15.0352 16.684 15.033 16.4822 15.033C16.3279 15.037 16.1761 15.0728 16.0363 15.1381C15.8965 15.2034 15.7716 15.2968 15.6695 15.4126C15.3901 15.7166 14.6026 16.4516 14.6026 17.9435C14.6026 19.4354 15.6963 20.8791 15.8473 21.0815C15.9982 21.2838 17.9965 24.3479 21.0541 25.6621C21.6218 25.9052 22.2019 26.1184 22.792 26.3008C23.5221 26.5316 24.1866 26.4994 24.7116 26.4212C25.2973 26.3342 26.5163 25.6872 26.7695 24.9785C27.0227 24.2697 27.0232 23.6627 26.9472 23.5364C26.8712 23.4101 26.6677 23.3335 26.3626 23.182Z" fill="#25D366"/>
</svg>
