<svg width="24" height="24" viewBox="0 0 24 24" fill="none" xmlns="http://www.w3.org/2000/svg">
<path d="M18.2222 3.81818H14.5067C14.1333 2.76364 13.1556 2 12 2C10.8444 2 9.86667 2.76364 9.49333 3.81818H5.77778C4.8 3.81818 4 4.63636 4 5.63636V20.1818C4 21.1818 4.8 22 5.77778 22H18.2222C19.2 22 20 21.1818 20 20.1818V5.63636C20 4.63636 19.2 3.81818 18.2222 3.81818ZM12 3.81818C12.4889 3.81818 12.8889 4.22727 12.8889 4.72727C12.8889 5.22727 12.4889 5.63636 12 5.63636C11.5111 5.63636 11.1111 5.22727 11.1111 4.72727C11.1111 4.22727 11.5111 3.81818 12 3.81818ZM17.3333 20.1818H6.66667C6.17778 20.1818 5.77778 19.7727 5.77778 19.2727V6.54545C5.77778 6.04545 6.17778 5.63636 6.66667 5.63636H7.55556V6.54545C7.55556 7.54545 8.35556 8.36364 9.33333 8.36364H14.6667C15.6444 8.36364 16.4444 7.54545 16.4444 6.54545V5.63636H17.3333C17.8222 5.63636 18.2222 6.04545 18.2222 6.54545V19.2727C18.2222 19.7727 17.8222 20.1818 17.3333 20.1818Z" fill="#281B6F"/>
</svg>
