<svg width="30" height="31" viewBox="0 0 30 31" fill="none" xmlns="http://www.w3.org/2000/svg">
<circle cx="15" cy="15.0391" r="15" fill="#32856E"/>
<path d="M15.1839 10.6049C13.81 10.2491 12.4079 11.0744 12.0522 12.4483C11.9812 12.7235 12.1466 13.0041 12.4218 13.0751C12.697 13.1461 12.9776 12.9806 13.0486 12.7054C13.1789 12.1981 13.5579 11.7916 14.0547 11.626C14.863 11.3565 15.7365 11.7933 16.0059 12.6015C16.2754 13.4097 15.8386 14.2833 15.0304 14.5527C14.4095 14.7834 14.0039 15.3832 14.0209 16.0453V16.6917C14.021 16.9756 14.2513 17.2056 14.5352 17.2054C14.8191 17.2053 15.0497 16.975 15.0495 16.6912V16.0453C15.0355 15.8243 15.16 15.6178 15.3619 15.527C16.1836 15.2495 16.8099 14.5762 17.0273 13.7366C17.383 12.3628 16.5577 10.9607 15.1839 10.6049ZM14.535 18.1054C14.1799 18.1054 13.8922 18.3932 13.8922 18.7482C13.8922 19.1032 14.1799 19.3911 14.535 19.3911C14.89 19.3911 15.1779 19.1032 15.1779 18.7482C15.1779 18.3932 14.89 18.1054 14.535 18.1054ZM14.5714 4.3252C8.89074 4.3252 4.28564 8.93029 4.28564 14.6109C4.28564 20.2915 8.89074 24.8966 14.5714 24.8966C20.2492 24.89 24.8504 20.2888 24.8571 14.6109C24.8571 8.93029 20.252 4.3252 14.5714 4.3252ZM14.5714 23.8681C9.45876 23.8681 5.31422 19.7235 5.31422 14.6109C5.31422 9.49831 9.45876 5.35377 14.5714 5.35377C19.6816 5.35935 23.8229 9.50063 23.8285 14.6109C23.8285 19.7235 19.684 23.8681 14.5714 23.8681Z" fill="white"/>
</svg>
