<svg width="30" height="31" viewBox="0 0 30 31" fill="none" xmlns="http://www.w3.org/2000/svg">
<circle cx="15" cy="15.0195" r="15" fill="#32856E"/>
<path fill-rule="evenodd" clip-rule="evenodd" d="M15.4502 4.30573C14.3804 4.29866 13.397 4.90282 12.9204 5.85848L12.4783 6.74264C12.3041 6.80733 12.1327 6.87819 11.9632 6.95455L11.0262 6.64217C10.0139 6.30422 8.89027 6.57215 8.14012 7.33451C7.4008 8.08599 7.14701 9.19232 7.48071 10.1898L7.79306 11.1251C7.71508 11.2958 7.64211 11.4683 7.5757 11.6439L6.69527 12.0841C5.74069 12.5603 5.13483 13.5428 5.14265 14.6124C5.15037 15.6669 5.75271 16.6288 6.69344 17.0986L7.57935 17.5443C7.64429 17.7186 7.71491 17.8901 7.79124 18.0595L7.48071 18.9948C7.14313 20.0062 7.41018 21.1289 8.17117 21.8793C8.92199 22.6196 10.0283 22.8736 11.0262 22.5406L11.9614 22.23C12.1319 22.3078 12.3048 22.3791 12.4801 22.4456L12.9204 23.3242C13.397 24.2799 14.3804 24.8854 15.4502 24.877C16.5044 24.8699 17.4666 24.2659 17.9362 23.3242L18.3764 22.4437C18.5528 22.3783 18.7272 22.3074 18.8989 22.23L19.8304 22.5406C20.8283 22.8736 21.9346 22.6198 22.6854 21.8793C23.4469 21.1285 23.7144 20.0048 23.3759 18.993L23.0653 18.0577C23.143 17.8876 23.2148 17.7155 23.2809 17.5407L24.1613 17.0986C25.1028 16.6291 25.7062 15.6673 25.7139 14.6124C25.7218 13.5428 25.1159 12.5603 24.1613 12.0841L23.2772 11.642C23.2122 11.4667 23.1419 11.2939 23.0653 11.1232L23.3759 10.1898V10.1879C23.7087 9.19095 23.4553 8.08553 22.7165 7.33451C21.9663 6.57201 20.8427 6.30433 19.8304 6.64217L18.8934 6.95455C18.7233 6.87713 18.5512 6.80509 18.3764 6.73899L17.9362 5.85848C17.4666 4.91682 16.5045 4.31396 15.4502 4.30573ZM15.4356 6.17634C15.7873 6.17906 16.1051 6.37855 16.2631 6.69514L16.8567 7.88255C16.9124 7.99423 16.99 8.09363 17.0847 8.17488C17.1794 8.25614 17.2895 8.31761 17.4083 8.35568C17.7607 8.46809 18.1029 8.60914 18.4312 8.77949C18.5421 8.83718 18.6634 8.87208 18.7879 8.88212C18.9125 8.89216 19.0378 8.87714 19.1564 8.83795L20.4204 8.41779H20.4222C20.7629 8.30396 21.1329 8.39303 21.383 8.64614C21.6294 8.89677 21.7127 9.26234 21.6004 9.59788V9.59971L21.1821 10.8584C21.1431 10.976 21.1279 11.1002 21.1373 11.2237C21.1467 11.3473 21.1806 11.4677 21.2369 11.5781C21.4052 11.9072 21.5448 12.2502 21.6552 12.6029C21.6928 12.723 21.7543 12.8342 21.8359 12.9299C21.9175 13.0256 22.0176 13.1039 22.1301 13.1601L23.3247 13.7574C23.646 13.9176 23.8461 14.2415 23.8435 14.5978C23.8409 14.9488 23.6415 15.2673 23.3247 15.4253H23.3229L22.1356 16.0208C22.0243 16.0767 21.9252 16.1544 21.8443 16.2491C21.7634 16.3438 21.7022 16.4538 21.6643 16.5725C21.5513 16.9249 21.4096 17.2672 21.2387 17.5955C21.1808 17.7066 21.1458 17.8282 21.1357 17.9531C21.1257 18.078 21.1408 18.2036 21.1803 18.3225L21.6004 19.5848C21.7143 19.9253 21.6278 20.2953 21.3739 20.5457C21.1237 20.7925 20.7579 20.877 20.4222 20.7649H20.4204L19.1619 20.3466C19.044 20.3074 18.9195 20.292 18.7956 20.3014C18.6717 20.3108 18.551 20.3448 18.4404 20.4014C18.1108 20.5704 17.7689 20.7107 17.4156 20.8216C17.2956 20.8592 17.1844 20.9207 17.0887 21.0023C16.993 21.0839 16.9147 21.184 16.8585 21.2965L16.2631 22.4876C16.1051 22.8043 15.7874 23.0036 15.4356 23.0064C15.0784 23.0092 14.7539 22.8091 14.5935 22.4876L13.9999 21.302C13.9441 21.1903 13.8666 21.0909 13.7719 21.0097C13.6772 20.9284 13.5671 20.8669 13.4482 20.8289C13.0953 20.7158 12.7523 20.5743 12.4235 20.4032C12.3124 20.3453 12.1908 20.3103 12.066 20.3002C11.9411 20.2902 11.8154 20.3053 11.6965 20.3448L10.4343 20.7649C10.0987 20.877 9.73292 20.7932 9.48268 20.5457C9.22874 20.2955 9.14228 19.9253 9.25618 19.5848V19.583L9.67447 18.3244C9.71344 18.2064 9.7285 18.0818 9.71877 17.9579C9.70905 17.834 9.67474 17.7133 9.61785 17.6028C9.44913 17.2744 9.30874 16.932 9.19773 16.5798C9.1603 16.4604 9.09931 16.3498 9.01836 16.2544C8.93742 16.159 8.83816 16.0808 8.72646 16.0245L7.53369 15.4253H7.53186C7.21508 15.2673 7.01567 14.949 7.0131 14.5978C7.01049 14.2415 7.21058 13.9177 7.53186 13.7574L8.71915 13.1637C8.83083 13.108 8.93022 13.0305 9.01147 12.9357C9.09272 12.841 9.15418 12.7309 9.19225 12.6121C9.30532 12.2596 9.44694 11.9174 9.61785 11.5891C9.67554 11.4782 9.71043 11.3569 9.72047 11.2324C9.73051 11.1078 9.71549 10.9825 9.6763 10.8638L9.25618 9.59971V9.59788C9.14393 9.26241 9.22712 8.89659 9.47354 8.64614C9.72372 8.39197 10.0937 8.30432 10.4343 8.41779L11.6947 8.83795C11.8126 8.87719 11.9371 8.89256 12.061 8.88315C12.1849 8.87374 12.3056 8.83974 12.4162 8.78314C12.7448 8.61488 13.087 8.47525 13.4391 8.36481C13.5591 8.32718 13.6703 8.26572 13.7661 8.18411C13.8618 8.1025 13.9401 8.00242 13.9962 7.88985L14.5935 6.69514C14.7539 6.37346 15.0784 6.17355 15.4356 6.17634ZM15.4319 9.91574C12.8605 9.91574 10.7504 12.0188 10.7503 14.5905C10.7503 17.1621 12.8605 19.2706 15.4319 19.2706C18.0034 19.2706 20.1044 17.1621 20.1044 14.5905C20.1044 12.0188 18.0034 9.91574 15.4319 9.91574ZM15.4319 11.7864C16.9926 11.7864 18.234 13.0297 18.234 14.5905C18.234 16.1512 16.9926 17.4 15.4319 17.4C13.8713 17.4 12.6208 16.1512 12.6208 14.5905C12.6208 13.0297 13.8713 11.7864 15.4319 11.7864Z" fill="white"/>
</svg>
