<svg width="30" height="31" viewBox="0 0 30 31" fill="none" xmlns="http://www.w3.org/2000/svg">
<circle cx="15" cy="15.0781" r="15" fill="#32856E"/>
<path d="M14.4283 24.6496C9.29979 24.6496 5.14258 20.4923 5.14258 15.3638C5.14258 10.2353 9.29979 6.07813 14.4283 6.07813C15.87 6.07704 17.2922 6.4122 18.5817 7.05697C19.8713 7.70174 20.9927 8.63836 21.8569 9.79241H19.3404C18.2681 8.8469 16.9458 8.23089 15.5321 8.01828C14.1184 7.80568 12.6734 8.00552 11.3704 8.59383C10.0675 9.18213 8.96193 10.1339 8.1865 11.3349C7.41107 12.536 6.99867 13.9353 6.99879 15.3649C6.99891 16.7945 7.41154 18.1937 8.18717 19.3946C8.9628 20.5955 10.0685 21.5471 11.3715 22.1352C12.6746 22.7233 14.1196 22.9229 15.5333 22.71C16.947 22.4972 18.2692 21.881 19.3414 20.9353H21.8578C20.9935 22.0894 19.872 23.0261 18.5822 23.6709C17.2925 24.3157 15.8702 24.6508 14.4283 24.6496ZM20.9283 19.0781V16.2924H13.4997V14.4353H20.9283V11.6496L25.5711 15.3638L20.9283 19.0781Z" fill="white"/>
</svg>
