<svg width="29" height="26" viewBox="0 0 29 26" fill="none" xmlns="http://www.w3.org/2000/svg">
<g clip-path="url(#clip0_3491_9809)">
<path fill-rule="evenodd" clip-rule="evenodd" d="M5.16699 5.41699C5.16699 4.55504 5.53574 3.72839 6.19212 3.1189C6.8485 2.5094 7.73873 2.16699 8.66699 2.16699H20.3337C21.2619 2.16699 22.1522 2.5094 22.8085 3.1189C23.4649 3.72839 23.8337 4.55504 23.8337 5.41699V22.7503C23.8335 22.9544 23.7713 23.1542 23.6542 23.3269C23.5372 23.4996 23.3699 23.638 23.1718 23.7263C22.9737 23.8146 22.7528 23.8491 22.5345 23.826C22.3162 23.8028 22.1094 23.7229 21.9378 23.5953L19.7503 21.9703L17.5628 23.5953C17.3387 23.762 17.0563 23.8461 16.7695 23.8316C16.4828 23.817 16.212 23.7047 16.0088 23.5162L14.5003 22.1155L12.9918 23.5162C12.7888 23.7049 12.5181 23.8173 12.2313 23.8321C11.9446 23.8469 11.6621 23.763 11.4378 23.5964L9.25033 21.9703L7.06283 23.5953C6.89129 23.7229 6.68446 23.8028 6.46615 23.826C6.24783 23.8491 6.0269 23.8146 5.82881 23.7263C5.63071 23.638 5.46349 23.4996 5.3464 23.3269C5.22932 23.1542 5.16713 22.9544 5.16699 22.7503V5.41699ZM8.66699 4.33366C8.35757 4.33366 8.06083 4.4478 7.84203 4.65096C7.62324 4.85412 7.50033 5.12967 7.50033 5.41699V20.497L8.52116 19.7387C8.72808 19.5848 8.98525 19.501 9.25033 19.501C9.5154 19.501 9.77257 19.5848 9.97949 19.7387L12.0795 21.2987L13.6755 19.8177C13.8943 19.6146 14.191 19.5006 14.5003 19.5006C14.8097 19.5006 15.1064 19.6146 15.3252 19.8177L16.92 21.2987L19.0212 19.7387C19.2281 19.5848 19.4853 19.501 19.7503 19.501C20.0154 19.501 20.2726 19.5848 20.4795 19.7387L21.5003 20.497V5.41699C21.5003 5.12967 21.3774 4.85412 21.1586 4.65096C20.9398 4.4478 20.6431 4.33366 20.3337 4.33366H8.66699ZM9.83366 9.75033C9.83366 9.46301 9.95658 9.18746 10.1754 8.98429C10.3942 8.78113 10.6909 8.66699 11.0003 8.66699H18.0003C18.3097 8.66699 18.6065 8.78113 18.8253 8.98429C19.0441 9.18746 19.167 9.46301 19.167 9.75033C19.167 10.0376 19.0441 10.3132 18.8253 10.5164C18.6065 10.7195 18.3097 10.8337 18.0003 10.8337H11.0003C10.6909 10.8337 10.3942 10.7195 10.1754 10.5164C9.95658 10.3132 9.83366 10.0376 9.83366 9.75033ZM11.0003 13.0003C10.6909 13.0003 10.3942 13.1145 10.1754 13.3176C9.95658 13.5208 9.83366 13.7963 9.83366 14.0837C9.83366 14.371 9.95658 14.6465 10.1754 14.8497C10.3942 15.0529 10.6909 15.167 11.0003 15.167H14.5003C14.8097 15.167 15.1065 15.0529 15.3253 14.8497C15.5441 14.6465 15.667 14.371 15.667 14.0837C15.667 13.7963 15.5441 13.5208 15.3253 13.3176C15.1065 13.1145 14.8097 13.0003 14.5003 13.0003H11.0003Z" fill="#F5F4FB"/>
</g>
<defs>
<clipPath id="clip0_3491_9809">
<rect width="28" height="26" fill="white" transform="translate(0.5)"/>
</clipPath>
</defs>
</svg>
