<svg width="28" height="28" viewBox="0 0 28 28" fill="none" xmlns="http://www.w3.org/2000/svg">
<path d="M23.6972 14.755L24.3004 12.501C25.005 9.87021 25.3586 8.55537 25.0937 7.41671C24.8838 6.51778 24.412 5.7013 23.738 5.07054C22.8852 4.27138 21.5692 3.91904 18.9384 3.21438C16.3075 2.50854 14.9915 2.15621 13.854 2.42104C12.9551 2.63094 12.1386 3.10272 11.5079 3.77671C10.823 4.50704 10.466 5.57688 9.93522 7.52054L9.65055 8.57637L9.04738 10.8304C8.34155 13.4612 7.98922 14.776 8.25405 15.9147C8.46395 16.8136 8.93573 17.6301 9.60972 18.2609C10.4626 19.06 11.7785 19.4124 14.4094 20.1182C16.78 20.7529 18.0832 21.1017 19.1507 20.9699C19.2674 20.9559 19.3817 20.9349 19.4937 20.9092C20.3924 20.7 21.2088 20.229 21.8399 19.5559C22.639 18.7019 22.9914 17.3859 23.6972 14.755Z" stroke="#F5F4FB" stroke-width="2"/>
<path d="M19.1508 20.97C18.9069 21.7171 18.4783 22.3905 17.9048 22.9277C17.052 23.7269 15.736 24.0792 13.1051 24.7839C10.4743 25.4885 9.1583 25.842 8.0208 25.576C7.12201 25.3665 6.30555 24.8951 5.67463 24.2215C4.87546 23.3687 4.52196 22.0527 3.8173 19.4219L3.21413 17.1679C2.5083 14.537 2.15596 13.221 2.4208 12.0835C2.6307 11.1846 3.10248 10.3681 3.77646 9.73736C4.6293 8.9382 5.9453 8.58586 8.57613 7.88003C9.07313 7.74703 9.52463 7.6257 9.9353 7.51953" stroke="#F5F4FB" stroke-width="2"/>
<path d="M13.7398 11.667L19.3748 13.1767M12.8333 15.048L16.2143 15.9533" stroke="#F5F4FB" stroke-width="2" stroke-linecap="round"/>
</svg>
