<svg width="23" height="23" viewBox="0 0 23 23" fill="none" xmlns="http://www.w3.org/2000/svg">
<path d="M12.6065 3.00736H13.203V2.41087V1.48257V1.08802C13.3031 1.12002 13.4037 1.15473 13.5041 1.19222C14.1298 1.42574 14.7215 1.7556 15.1844 2.18179L14.2104 4.14983C13.7157 3.71088 13.1226 3.38582 12.4688 3.21718V3.18319V3.00736H12.6065ZM9.55617 3.54103C9.24007 3.70258 8.94588 3.90344 8.67943 4.1381L7.69822 2.25596C8.29855 1.71657 8.98628 1.34287 9.65949 1.10726V1.48257V2.41087V3.00736H10.256H10.3937V3.18319V3.2212C10.1054 3.29682 9.8246 3.40386 9.55617 3.54103ZM7.70673 15.2011H7.25299L7.13188 15.6384L6.21624 18.9444H5.04705L6.48312 14.0365L6.48323 14.0366L6.48625 14.0254C6.58609 13.658 6.87792 13.0952 7.36409 12.6288C7.83999 12.1723 8.47559 11.8318 9.27593 11.8272L13.6903 11.8311C14.4695 11.8533 15.0904 12.1951 15.5561 12.6475C16.0324 13.1102 16.3184 13.6633 16.4168 14.0258L16.4168 14.0258L16.4191 14.0339L17.8287 18.9448H16.6886L15.7708 15.6381L15.6495 15.2011H15.196H14.469H13.6857L13.894 15.9562L14.7183 18.9448H8.17991L9.0079 15.9569L9.21734 15.2011H8.43307H7.70673ZM1.42169 21.3313H21.4484V22.2639H1.42169V21.3313Z" stroke="#110C2C" stroke-width="1.19298"/>
</svg>
