<svg width="7" height="15" viewBox="0 0 7 15" fill="none" xmlns="http://www.w3.org/2000/svg">
<path d="M5.42106 0.503824C5.60644 0.48961 5.79271 0.515124 5.96744 0.57866C6.14216 0.642196 6.30132 0.742291 6.43426 0.872257C6.56721 1.00222 6.67089 1.15907 6.73837 1.33231C6.80585 1.50555 6.83558 1.69119 6.82558 1.87684V1.87334C6.80368 2.34614 6.60051 2.79234 6.25827 3.11927C5.91602 3.44621 5.46099 3.62875 4.98769 3.62899L4.94978 3.62841H4.95153C4.76367 3.64876 4.57364 3.62642 4.39563 3.56305C4.21762 3.49969 4.05621 3.39693 3.92347 3.26245C3.79073 3.12797 3.69008 2.96525 3.62904 2.78642C3.56799 2.6076 3.54813 2.4173 3.57092 2.22972L3.57034 2.23556C3.58799 1.76062 3.79269 1.31192 4.13982 0.987304C4.48695 0.662685 4.94834 0.488473 5.42339 0.502657H5.42048L5.42106 0.503824ZM2.53562 14.4988C1.79603 14.4988 1.253 14.0421 1.77095 12.0339L2.62019 8.47131C2.76834 7.90087 2.79226 7.67281 2.62019 7.67281C1.98838 7.8317 1.38926 8.09997 0.849963 8.46548L0.869211 8.45323L0.5 7.83671C2.29998 6.30737 4.37175 5.41088 5.25833 5.41088C5.99791 5.41088 6.12157 6.30096 5.75119 7.67048L4.77946 11.4157C4.60681 12.0777 4.68147 12.3057 4.85295 12.3057C5.47142 12.1656 6.04529 11.8737 6.52286 11.4565L6.51819 11.4606L6.93815 12.0316C5.186 13.8117 3.27462 14.5 2.53503 14.5L2.53562 14.4988Z" fill="#413D56"/>
</svg>
