<svg width="21" height="24" viewBox="0 0 21 24" fill="none" xmlns="http://www.w3.org/2000/svg">
<path d="M19.3571 12.4086V9.09965C19.3571 8.66086 19.1915 8.24004 18.8968 7.92977C18.6021 7.6195 18.2024 7.44519 17.7856 7.44519H2.85707C2.4403 7.44519 2.04061 7.6195 1.74591 7.92977C1.45121 8.24004 1.28564 8.66086 1.28564 9.09965V20.6808C1.28564 21.1196 1.45121 21.5404 1.74591 21.8507C2.04061 22.161 2.4403 22.3353 2.85707 22.3353H17.7856C18.2024 22.3353 18.6021 22.161 18.8968 21.8507C19.1915 21.5404 19.3571 21.1196 19.3571 20.6808V16.5447M6.53422 3.30905L15.4442 0.860459C15.5443 0.830759 15.6491 0.822725 15.7523 0.836841C15.8554 0.850958 15.9548 0.886933 16.0444 0.942595C16.134 0.998257 16.2119 1.07245 16.2735 1.1607C16.3351 1.24895 16.3791 1.34943 16.4028 1.45606L16.8428 3.30905" stroke="#110C2C" stroke-width="1.9883" stroke-linecap="round" stroke-linejoin="round"/>
</svg>
