<svg width="21" height="18" viewBox="0 0 21 18" fill="none" xmlns="http://www.w3.org/2000/svg">
<path d="M8.67788 16.7694V16.7677V15.7617C8.67788 15.4875 8.7388 15.2289 8.86462 14.9772C8.98405 14.7383 9.14236 14.563 9.34202 14.434C10.0774 13.9698 10.8555 13.6231 11.678 13.392C12.5024 13.1604 13.3766 13.0427 14.3033 13.042C15.2303 13.042 16.1042 13.1597 16.928 13.3919C17.7509 13.6237 18.5289 13.9706 19.2637 14.4341C19.4633 14.5631 19.6215 14.7384 19.7409 14.9772C19.8667 15.2289 19.9277 15.4875 19.9277 15.7617V16.7677C19.9277 16.908 19.8893 16.9855 19.8269 17.0513C19.7664 17.1149 19.7117 17.1402 19.6134 17.14H19.6115H8.99401C8.89382 17.14 8.83811 17.1139 8.77761 17.0502L8.23699 17.5637L8.7776 17.0502C8.71524 16.9845 8.67756 16.9079 8.67788 16.7694ZM7.93411 10.4329H7.93226H1.56176C1.46157 10.4329 1.40586 10.4068 1.34535 10.3431C1.28298 10.2774 1.24531 10.2008 1.24562 10.0623V10.0606C1.24562 9.92034 1.28394 9.84287 1.34641 9.77711C1.40684 9.71348 1.4616 9.68817 1.5599 9.68841H1.56176H7.93226C8.03245 9.68841 8.08816 9.71452 8.14867 9.77823C8.21104 9.84389 8.24871 9.92046 8.2484 10.059V10.0606C8.2484 10.201 8.21007 10.2784 8.14761 10.3442C8.08718 10.4078 8.03242 10.4331 7.93411 10.4329ZM12.1811 1.49009H12.1793H1.56176C1.46157 1.49009 1.40586 1.46398 1.34535 1.40027C1.28298 1.33461 1.24531 1.25804 1.24562 1.11952H1.24562V1.11785C1.24562 0.977549 1.28394 0.90008 1.34641 0.834316C1.40684 0.770688 1.4616 0.745372 1.5599 0.745616V0.745618H1.56176H12.1793C12.2795 0.745618 12.3352 0.771723 12.3957 0.835433C12.458 0.901094 12.4957 0.977667 12.4954 1.11618V1.11785C12.4954 1.25816 12.4571 1.33563 12.3946 1.40139L12.9352 1.91488L12.3946 1.40139C12.3342 1.46502 12.2794 1.49033 12.1811 1.49009ZM1.24562 5.59092V5.58925C1.24562 5.44895 1.28394 5.37148 1.34641 5.30571C1.40684 5.24208 1.4616 5.21677 1.5599 5.21701H1.56176H8.77036C8.76918 5.21992 8.768 5.22283 8.76682 5.22574C8.67096 5.46266 8.58711 5.708 8.51496 5.96149H1.56176C1.46157 5.96149 1.40586 5.93538 1.34535 5.87167C1.28298 5.80601 1.24531 5.72944 1.24562 5.59092ZM14.3028 10.4329C13.6262 10.4329 13.0684 10.1935 12.5872 9.68689C12.1046 9.17878 11.8631 8.57296 11.8631 7.82495C11.8631 7.07693 12.1046 6.47112 12.5872 5.96301C13.0684 5.45638 13.6262 5.21701 14.3028 5.21701C14.9794 5.21701 15.5372 5.45638 16.0184 5.96301C16.501 6.47112 16.7424 7.07693 16.7424 7.82495C16.7424 8.57296 16.501 9.17878 16.0184 9.68689C15.5372 10.1935 14.9794 10.4329 14.3028 10.4329ZM0.500004 10.0606C0.500004 9.74392 0.601932 9.47825 0.805788 9.26362C1.00964 9.04899 1.26163 8.94205 1.56176 8.9428L0.500004 10.0606Z" stroke="#110C2C" stroke-width="1.49123"/>
</svg>
