<svg width="21" height="21" viewBox="0 0 21 21" fill="none" xmlns="http://www.w3.org/2000/svg">
<path fill-rule="evenodd" clip-rule="evenodd" d="M10.4502 0.305725C9.38035 0.298655 8.39696 0.902825 7.92036 1.85848L7.47832 2.74264C7.30412 2.80733 7.13275 2.87819 6.96321 2.95455L6.02616 2.64217C5.01385 2.30422 3.89027 2.57215 3.14012 3.33451C2.4008 4.08599 2.14701 5.19232 2.48071 6.18976L2.79306 7.12507C2.71508 7.29581 2.64211 7.46832 2.5757 7.64387L1.69527 8.08412C0.740695 8.56029 0.134827 9.54282 0.142653 10.6124C0.150369 11.6669 0.752709 12.6288 1.69344 13.0986L2.57935 13.5443C2.64429 13.7186 2.71491 13.8901 2.79124 14.0595L2.48071 14.9948C2.14313 16.0062 2.41018 17.1289 3.17117 17.8793C3.92199 18.6196 5.0283 18.8736 6.02616 18.5406L6.96139 18.23C7.1319 18.3078 7.30482 18.3791 7.48014 18.4456L7.92036 19.3242C8.39696 20.2799 9.38035 20.8854 10.4502 20.877C11.5044 20.8699 12.4666 20.2659 12.9362 19.3242L13.3764 18.4437C13.5528 18.3783 13.7272 18.3074 13.8989 18.23L14.8304 18.5406C15.8283 18.8736 16.9346 18.6198 17.6854 17.8793C18.4469 17.1285 18.7144 16.0048 18.3759 14.993L18.0653 14.0577C18.143 13.8876 18.2148 13.7155 18.2809 13.5407L19.1613 13.0986C20.1028 12.6291 20.7062 11.6673 20.7139 10.6124C20.7218 9.54278 20.1159 8.56029 19.1613 8.08412L18.2772 7.64204C18.2122 7.46671 18.1419 7.29387 18.0653 7.12324L18.3759 6.18976V6.18793C18.7087 5.19095 18.4553 4.08553 17.7165 3.33451C16.9663 2.57201 15.8427 2.30433 14.8304 2.64217L13.8934 2.95455C13.7233 2.87713 13.5512 2.80509 13.3764 2.73899L12.9362 1.85848C12.4666 0.916823 11.5045 0.313962 10.4502 0.305725ZM10.4356 2.17634C10.7873 2.17906 11.1051 2.37855 11.2631 2.69514L11.8567 3.88255C11.9124 3.99423 11.99 4.09363 12.0847 4.17488C12.1794 4.25614 12.2895 4.31761 12.4083 4.35568C12.7607 4.46809 13.1029 4.60914 13.4312 4.77949C13.5421 4.83718 13.6634 4.87208 13.7879 4.88212C13.9125 4.89216 14.0378 4.87714 14.1564 4.83795L15.4204 4.41779H15.4222C15.7629 4.30396 16.1329 4.39303 16.383 4.64614C16.6294 4.89677 16.7127 5.26234 16.6004 5.59788V5.59971L16.1821 6.85836C16.1431 6.97598 16.1279 7.10017 16.1373 7.22373C16.1467 7.34729 16.1806 7.46775 16.2369 7.57811C16.4052 7.90722 16.5448 8.2502 16.6552 8.60292C16.6928 8.72296 16.7543 8.83417 16.8359 8.92991C16.9175 9.02564 17.0176 9.10393 17.1301 9.16009L18.3247 9.75744C18.646 9.91758 18.8461 10.2415 18.8435 10.5978C18.8409 10.9488 18.6415 11.2673 18.3247 11.4253H18.3229L17.1356 12.0208C17.0243 12.0767 16.9252 12.1544 16.8443 12.2491C16.7634 12.3438 16.7022 12.4538 16.6643 12.5725C16.5513 12.9249 16.4096 13.2672 16.2387 13.5955C16.1808 13.7066 16.1458 13.8282 16.1357 13.9531C16.1257 14.078 16.1408 14.2036 16.1803 14.3225L16.6004 15.5848C16.7143 15.9253 16.6278 16.2953 16.3739 16.5457C16.1237 16.7925 15.7579 16.877 15.4222 16.7649H15.4204L14.1619 16.3466C14.044 16.3074 13.9195 16.292 13.7956 16.3014C13.6717 16.3108 13.551 16.3448 13.4404 16.4014C13.1108 16.5704 12.7689 16.7107 12.4156 16.8216C12.2956 16.8592 12.1844 16.9207 12.0887 17.0023C11.993 17.0839 11.9147 17.184 11.8585 17.2965L11.2631 18.4876C11.1051 18.8043 10.7874 19.0036 10.4356 19.0064C10.0784 19.0092 9.75386 18.8091 9.59353 18.4876L8.99988 17.302C8.94415 17.1903 8.86663 17.0909 8.77189 17.0097C8.67715 16.9284 8.56711 16.8669 8.44825 16.8289C8.09528 16.7158 7.75232 16.5743 7.42352 16.4032C7.31243 16.3453 7.19084 16.3103 7.06596 16.3002C6.94107 16.2902 6.81544 16.3053 6.69653 16.3448L5.43434 16.7649C5.09868 16.877 4.73292 16.7932 4.48268 16.5457C4.22874 16.2955 4.14228 15.9253 4.25618 15.5848V15.583L4.67447 14.3244C4.71344 14.2064 4.7285 14.0818 4.71877 13.9579C4.70905 13.834 4.67474 13.7133 4.61785 13.6028C4.44913 13.2744 4.30874 12.932 4.19773 12.5798C4.1603 12.4604 4.09931 12.3498 4.01836 12.2544C3.93742 12.159 3.83816 12.0808 3.72646 12.0245L2.53369 11.4253H2.53186C2.21508 11.2673 2.01567 10.949 2.0131 10.5978C2.01049 10.2415 2.21058 9.91769 2.53186 9.75744L3.71915 9.16374C3.83083 9.10801 3.93022 9.03048 4.01147 8.93573C4.09272 8.84098 4.15418 8.73093 4.19225 8.61206C4.30532 8.25962 4.44694 7.9174 4.61785 7.58907C4.67554 7.47822 4.71043 7.35693 4.72047 7.23237C4.73051 7.10781 4.71549 6.9825 4.6763 6.86384L4.25618 5.59971V5.59788C4.14393 5.26241 4.22712 4.89659 4.47354 4.64614C4.72372 4.39197 5.09372 4.30432 5.43434 4.41779L6.6947 4.83795C6.81258 4.87719 6.93709 4.89256 7.06097 4.88315C7.18485 4.87374 7.30562 4.83974 7.41621 4.78314C7.74477 4.61488 8.08695 4.47525 8.43911 4.36481C8.55914 4.32718 8.67034 4.26572 8.76607 4.18411C8.86179 4.1025 8.94007 4.00242 8.99623 3.88985L9.59353 2.69514C9.75386 2.37346 10.0784 2.17355 10.4356 2.17634ZM10.4319 5.91574C7.86048 5.91574 5.75035 8.01876 5.75034 10.5905C5.75033 13.1621 7.86046 15.2706 10.4319 15.2706C13.0034 15.2706 15.1044 13.1621 15.1044 10.5905C15.1044 8.01876 13.0034 5.91574 10.4319 5.91574ZM10.4319 7.78636C11.9926 7.78636 13.234 9.02971 13.234 10.5905C13.234 12.1512 11.9926 13.4 10.4319 13.4C8.87133 13.4 7.62078 12.1512 7.62079 10.5905C7.6208 9.02971 8.87134 7.78636 10.4319 7.78636Z" fill="white"/>
</svg>
