<svg width="15" height="20" viewBox="0 0 15 20" fill="none" xmlns="http://www.w3.org/2000/svg">
<path d="M12.7188 15.625L14.5487 13.7959C14.7601 13.5846 14.8788 13.298 14.8788 12.9991C14.8788 12.7002 14.7601 12.4135 14.5487 12.2022C14.3374 11.9909 14.0508 11.8721 13.7519 11.8721C13.453 11.8721 13.1663 11.9909 12.955 12.2022L11.125 14.0313L8.02469 10.9375C9.25093 10.6007 10.3132 9.83026 11.0143 8.76931C11.7154 7.70836 12.0075 6.42901 11.8365 5.16891C11.6655 3.9088 11.0429 2.75361 10.0844 1.9179C9.12589 1.0822 7.89665 0.622785 6.625 0.625008H1.75C1.45163 0.625008 1.16548 0.743535 0.954505 0.954513C0.743526 1.16549 0.625 1.45164 0.625 1.75001V16C0.625 16.2984 0.743526 16.5845 0.954505 16.7955C1.16548 17.0065 1.45163 17.125 1.75 17.125C2.04837 17.125 2.33452 17.0065 2.5455 16.7955C2.75647 16.5845 2.875 16.2984 2.875 16V11.125H5.03125L9.53125 15.625L7.70125 17.4541C7.5966 17.5587 7.51359 17.683 7.45696 17.8197C7.40032 17.9564 7.37117 18.103 7.37117 18.2509C7.37117 18.3989 7.40032 18.5455 7.45696 18.6822C7.51359 18.8189 7.5966 18.9432 7.70125 19.0478C7.91259 19.2592 8.19924 19.3779 8.49812 19.3779C8.64612 19.3779 8.79266 19.3487 8.92939 19.2921C9.06612 19.2355 9.19035 19.1525 9.295 19.0478L11.125 17.2188L12.9541 19.0488C13.1654 19.2601 13.4521 19.3788 13.7509 19.3788C14.0498 19.3788 14.3365 19.2601 14.5478 19.0488C14.7592 18.8374 14.8779 18.5508 14.8779 18.2519C14.8779 17.953 14.7592 17.6664 14.5478 17.455L12.7188 15.625ZM2.875 2.87501H6.625C7.42065 2.87501 8.18371 3.19108 8.74632 3.75369C9.30893 4.3163 9.625 5.07936 9.625 5.87501C9.625 6.67066 9.30893 7.43372 8.74632 7.99633C8.18371 8.55894 7.42065 8.87501 6.625 8.87501H2.875V2.87501Z" fill="#281B6F"/>
</svg>
