<svg width="17" height="15" viewBox="0 0 17 15" fill="none" xmlns="http://www.w3.org/2000/svg">
<path d="M2.15501 3.29875H14.4325M2.15501 6.0025H14.4325M2.15501 8.71H7.13126M1.75001 1C1.54939 1.00489 1.35864 1.08804 1.2185 1.23168C1.07836 1.37533 0.999949 1.56807 1.00001 1.76875V10.2362C0.999515 10.3375 1.01903 10.4379 1.05745 10.5316C1.09586 10.6253 1.15241 10.7105 1.22384 10.7823C1.29527 10.854 1.38019 10.911 1.4737 10.9499C1.56722 10.9887 1.66749 11.0088 1.76876 11.0087H4.01876L8.36501 14.0087C8.42122 14.0477 8.48703 14.0706 8.5553 14.0749C8.62358 14.0792 8.69173 14.0647 8.75237 14.033C8.81301 14.0014 8.86382 13.9537 8.89932 13.8952C8.93482 13.8367 8.95365 13.7697 8.95376 13.7013V11.0087H14.8375C15.0388 11.0038 15.2301 10.9202 15.3703 10.7757C15.5106 10.6313 15.5886 10.4376 15.5875 10.2362V1.76875C15.5876 1.56807 15.5092 1.37533 15.369 1.23168C15.2289 1.08804 15.0381 1.00489 14.8375 1H1.75001Z" stroke="#EEFAF7" stroke-linecap="round" stroke-linejoin="round"/>
</svg>
