
<svg width="16" height="20" viewBox="0 0 16 20" fill="none" xmlns="http://www.w3.org/2000/svg">
<path fill-rule="evenodd" clip-rule="evenodd" d="M0.000488281 3C0.000488281 2.20435 0.316559 1.44129 0.879168 0.87868C1.44178 0.316071 2.20484 0 3.00049 0H13.0005C13.7961 0 14.5592 0.316071 15.1218 0.87868C15.6844 1.44129 16.0005 2.20435 16.0005 3V19C16.0004 19.1883 15.9471 19.3728 15.8467 19.5322C15.7463 19.6916 15.603 19.8194 15.4332 19.9009C15.2634 19.9824 15.0741 20.0143 14.8869 19.9929C14.6998 19.9715 14.5225 19.8977 14.3755 19.78L12.5005 18.28L10.6255 19.78C10.4334 19.9339 10.1913 20.0115 9.94554 19.9981C9.69977 19.9846 9.46761 19.881 9.29349 19.707L8.00049 18.414L6.70749 19.707C6.53349 19.8811 6.3014 19.9849 6.05563 19.9986C5.80987 20.0122 5.5677 19.9348 5.37549 19.781L3.50049 18.28L1.62549 19.78C1.47846 19.8977 1.30118 19.9715 1.11405 19.9929C0.92692 20.0143 0.737556 19.9824 0.567757 19.9009C0.397958 19.8194 0.254629 19.6916 0.154271 19.5322C0.0539125 19.3728 0.000605921 19.1883 0.000488281 19V3ZM3.00049 2C2.73527 2 2.48092 2.10536 2.29338 2.29289C2.10585 2.48043 2.00049 2.73478 2.00049 3V16.92L2.87549 16.22C3.05285 16.078 3.27328 16.0006 3.50049 16.0006C3.72769 16.0006 3.94813 16.078 4.12549 16.22L5.92549 17.66L7.29349 16.293C7.48102 16.1055 7.73532 16.0002 8.00049 16.0002C8.26565 16.0002 8.51996 16.1055 8.70749 16.293L10.0745 17.66L11.8755 16.22C12.0529 16.078 12.2733 16.0006 12.5005 16.0006C12.7277 16.0006 12.9481 16.078 13.1255 16.22L14.0005 16.92V3C14.0005 2.73478 13.8951 2.48043 13.7076 2.29289C13.5201 2.10536 13.2657 2 13.0005 2H3.00049ZM4.00049 7C4.00049 6.73478 4.10585 6.48043 4.29338 6.29289C4.48092 6.10536 4.73527 6 5.00049 6H11.0005C11.2657 6 11.5201 6.10536 11.7076 6.29289C11.8951 6.48043 12.0005 6.73478 12.0005 7C12.0005 7.26522 11.8951 7.51957 11.7076 7.70711C11.5201 7.89464 11.2657 8 11.0005 8H5.00049C4.73527 8 4.48092 7.89464 4.29338 7.70711C4.10585 7.51957 4.00049 7.26522 4.00049 7ZM5.00049 10C4.73527 10 4.48092 10.1054 4.29338 10.2929C4.10585 10.4804 4.00049 10.7348 4.00049 11C4.00049 11.2652 4.10585 11.5196 4.29338 11.7071C4.48092 11.8946 4.73527 12 5.00049 12H8.00049C8.26571 12 8.52006 11.8946 8.70759 11.7071C8.89513 11.5196 9.00049 11.2652 9.00049 11C9.00049 10.7348 8.89513 10.4804 8.70759 10.2929C8.52006 10.1054 8.26571 10 8.00049 10H5.00049Z" fill="#281B6F"/>
</svg>
